<?xml version="1.0" ?><svg viewBox="0 0 60 60" xmlns="http://www.w3.org/2000/svg"><title/><g data-name="Layer 1" id="Layer_1"><path d="M59,20H13a1,1,0,0,0-1,1v5H1a1,1,0,0,0-1,1V53a7.00818,7.00818,0,0,0,7,7H53a7.00818,7.00818,0,0,0,7-7V21A1,1,0,0,0,59,20ZM7,58a5.00589,5.00589,0,0,1-5-5V28H12V53A5.00589,5.00589,0,0,1,7,58Zm51-5a5.00589,5.00589,0,0,1-5,5H11.89453A6.98008,6.98008,0,0,0,14,53V22H58Z"/><path d="M5,30a1,1,0,0,0-1,1V54a1,1,0,0,0,2,0V31A1,1,0,0,0,5,30Z"/><path d="M9,30a1,1,0,0,0-1,1V54a1,1,0,0,0,2,0V31A1,1,0,0,0,9,30Z"/><path d="M45,27H55a1,1,0,0,0,0-2H45a1,1,0,0,0,0,2Z"/><path d="M55,37H40a1,1,0,0,0,0,2H55a1,1,0,0,0,0-2Z"/><path d="M55,41H40a1,1,0,0,0,0,2H55a1,1,0,0,0,0-2Z"/><path d="M55,45H40a1,1,0,0,0,0,2H55a1,1,0,0,0,0-2Z"/><path d="M55,49H40a1,1,0,0,0,0,2H55a1,1,0,0,0,0-2Z"/><path d="M55,53H40a1,1,0,0,0,0,2H55a1,1,0,0,0,0-2Z"/><path d="M17,27H27a1,1,0,0,0,0-2H17a1,1,0,0,0,0,2Z"/><path d="M17,39H32a1,1,0,0,0,0-2H17a1,1,0,0,0,0,2Z"/><path d="M17,43H32a1,1,0,0,0,0-2H17a1,1,0,0,0,0,2Z"/><path d="M17,47H32a1,1,0,0,0,0-2H17a1,1,0,0,0,0,2Z"/><path d="M17,51H32a1,1,0,0,0,0-2H17a1,1,0,0,0,0,2Z"/><path d="M17,55H32a1,1,0,0,0,0-2H17a1,1,0,0,0,0,2Z"/><path d="M17,33H55a1,1,0,0,0,0-2H17a1,1,0,0,0,0,2Z"/></g></svg>