<?xml version="1.0" ?><svg viewBox="0 0 60 60" xmlns="http://www.w3.org/2000/svg"><title/><g data-name="Layer 1" id="Layer_1"><path d="M56.1333,41.2334c0-6.084-3.93848-11.729-10.34863-15.2334H48a3.50681,3.50681,0,1,0,.2002-7H42.68329c-1.27112-1.972-.92365-2.35309.79132-4.061L43.707,14.707a4.31194,4.31194,0,0,0,1.31152-3.56543,7.21355,7.21355,0,0,0-3.50391-4.999c-1.54-.92383-2.30078-1.89453-2.08789-2.6626A2.74741,2.74741,0,0,1,42,2a1,1,0,0,0,0-2c-1.78613,0-3.9707,1.03271-4.501,2.94629-.27686.999-.25684,2.96533,2.94629,4.88574a5.318,5.318,0,0,1,2.583,3.50635A2.34306,2.34306,0,0,1,42.293,13.293l-.23.229c-1.78864,1.78113-2.8241,3.02588-1.6665,5.478H36.69537c-1.28223-1.97662-.97839-2.31232.75775-4.04L37.707,14.707c1.06934-1.06934,1.95313-2.85889.08936-5.312a1.00012,1.00012,0,0,0-1.59277,1.21c1.10645,1.45605.62646,2.15088.08936,2.688l-.25049.24951C34.265,15.31079,33.23773,16.5462,34.40564,19H30.65717c-1.2525-1.95819-.88983-2.358.86139-4.105l.18848-.188a4.31194,4.31194,0,0,0,1.31152-3.56543,7.21355,7.21355,0,0,0-3.50391-4.999c-1.54-.92383-2.30078-1.89453-2.08789-2.6626A2.74741,2.74741,0,0,1,30,2a1,1,0,0,0,0-2c-1.78613,0-3.9707,1.03271-4.501,2.94629-.27686.999-.25684,2.96533,2.94629,4.88574a5.318,5.318,0,0,1,2.583,3.50635A2.34306,2.34306,0,0,1,30.293,13.293l-.18652.186C28.445,15.13586,27.187,16.40149,28.38135,19H24.68329c-1.27112-1.972-.92365-2.35309.79132-4.061L25.707,14.707c1.06934-1.06934,1.95313-2.85889.08936-5.312a1.00012,1.00012,0,0,0-1.59277,1.21c1.10645,1.45605.62646,2.15088.08936,2.688l-.23.229c-1.78864,1.78113-2.8241,3.02588-1.6665,5.478H18.65717c-1.2525-1.95819-.88983-2.358.86139-4.105l.18848-.188a4.31194,4.31194,0,0,0,1.31152-3.56543,7.21355,7.21355,0,0,0-3.50391-4.999c-1.54-.92383-2.30078-1.89453-2.08789-2.6626A2.74741,2.74741,0,0,1,18,2a1,1,0,0,0,0-2c-1.78613,0-3.9707,1.03271-4.501,2.94629-.27686.999-.25684,2.96533,2.94629,4.88574a5.318,5.318,0,0,1,2.583,3.50635A2.34306,2.34306,0,0,1,18.293,13.293l-.18652.186C16.445,15.13586,15.187,16.40149,16.38135,19H11.7998A3.50681,3.50681,0,1,0,12,26h2.3623C7.93994,29.58691,3.8667,35.332,3.8667,41.2334c0,4.97632,2.71613,9.50281,7.1333,12.86505V57a2.86284,2.86284,0,0,0,3,3,2.87717,2.87717,0,0,0,2.95557-2.5155A34.10964,34.10964,0,0,0,30,60a34.11111,34.11111,0,0,0,13.04449-2.5155A2.88955,2.88955,0,0,0,46.0332,60,2.85452,2.85452,0,0,0,49,57V54.09845C53.41718,50.73621,56.1333,46.20972,56.1333,41.2334ZM15,57a.91211.91211,0,0,1-1.0332,1A.88391.88391,0,0,1,13,57V55.469q.96112.59271,2,1.11792Zm32,0a1,1,0,0,1-2,0v-.41309q1.0383-.52469,2-1.11792ZM30,58C16.69287,58,5.8667,50.47852,5.8667,41.2334c0-6.28564,5.41211-12.43066,13.46777-15.291A1,1,0,0,0,19,24H12c-.86572,0-1.7998-.53516-1.7998-1.3999A1.60177,1.60177,0,0,1,11.7998,21H48.2002a1.60177,1.60177,0,0,1,1.59961,1.6001C49.7998,23.46484,48.86572,24,48,24H41a1,1,0,0,0-.32031,1.94727C48.85254,28.71191,54.1333,34.7124,54.1333,41.2334,54.1333,50.47852,43.30713,58,30,58Z"/><path d="M18.39893,29.45752a15.70378,15.70378,0,0,0-8.29785,6.45459,1,1,0,1,0,1.66406,1.10938,13.64476,13.64476,0,0,1,7.30273-5.6792,1,1,0,0,0-.66895-1.88477Z"/></g></svg>